<svg viewBox="0 0 480 360" xmlns="http://www.w3.org/2000/svg" font-family="Inter, sans-serif">
  <defs>
    <linearGradient id="bg" x1="0" y1="0" x2="1" y2="1">
      <stop offset="0%" stop-color="#fdf6ee"/>
      <stop offset="100%" stop-color="#f4e3cf"/>
    </linearGradient>
  </defs>
  <rect width="480" height="360" rx="14" fill="url(#bg)"/>
  <rect x="0" y="0" width="480" height="360" rx="14" fill="none" stroke="#d8c3a5" stroke-width="1.5"/>
  <text x="30" y="42" fill="#3a2213" font-size="20" font-weight="700" font-family="Georgia, serif">Ember &amp; Ash</text>
  <text x="30" y="64" fill="#8a6c4a" font-size="12" letter-spacing="2">A+ CONTENT &#8212; COMPARISON CHART</text>
  <line x1="30" y1="80" x2="450" y2="80" stroke="#d8c3a5" stroke-width="1"/>
  <!-- three-column comparison table mockup -->
  <g font-size="11" fill="#5a4632">
    <rect x="30" y="100" width="420" height="28" rx="4" fill="#c97a2b" fill-opacity="0.15"/>
    <text x="45" y="118">Feature</text>
    <text x="220" y="118">This edition</text>
    <text x="370" y="118">Other editions</text>

    <text x="45" y="150">Signed bookplate</text>
    <text x="230" y="150" fill="#1a7a3c">Included</text>
    <text x="380" y="150" fill="#a33">&#8212;</text>

    <text x="45" y="178">Bonus chapter</text>
    <text x="230" y="178" fill="#1a7a3c">Included</text>
    <text x="380" y="178" fill="#a33">&#8212;</text>

    <text x="45" y="206">Discussion guide</text>
    <text x="230" y="206" fill="#1a7a3c">Included</text>
    <text x="380" y="206" fill="#a33">&#8212;</text>

    <text x="45" y="234">Format</text>
    <text x="230" y="234">Hardcover</text>
    <text x="380" y="234">Paperback</text>
  </g>
  <line x1="30" y1="250" x2="450" y2="250" stroke="#d8c3a5" stroke-width="1"/>
  <text x="30" y="336" fill="#8a6c4a" font-size="10" letter-spacing="1">SAMPLE AUTHOR &#183; SAMPLE LISTING MOCKUP</text>
</svg>